<?xml version="1.0" encoding="utf-8"?>
<!-- Generator: Adobe Illustrator 23.0.6, SVG Export Plug-In . SVG Version: 6.00 Build 0)  -->
<svg version="1.1" id="Layer_1" xmlns="http://www.w3.org/2000/svg" xmlns:xlink="http://www.w3.org/1999/xlink" x="0px" y="0px"
	 viewBox="0 0 170.7 120.7" style="enable-background:new 0 0 170.7 120.7;" xml:space="preserve">
<style type="text/css">
	.st0{fill:#FFFFFF;}
</style>
<path class="st0" d="M146.9,60.4c0-8.2-10.2-15.9-25.9-20.7c3.6-16,2-28.7-5.1-32.7c-1.6-1-3.5-1.4-5.6-1.4v5.6
	c1.2,0,2.1,0.2,2.9,0.7c3.4,2,4.9,9.4,3.7,19c-0.3,2.4-0.7,4.8-1.3,7.4c-4.9-1.2-10.3-2.1-15.9-2.7c-3.4-4.6-6.9-8.9-10.4-12.5
	c8.2-7.6,15.9-11.8,21.1-11.8V5.5c-6.9,0-15.9,4.9-25.1,13.5C76.1,10.5,67.1,5.6,60.2,5.6v5.6c5.2,0,12.9,4.1,21.1,11.7
	c-3.5,3.7-7,7.9-10.4,12.5c-5.7,0.6-11,1.5-16,2.8c-0.6-2.5-1-4.9-1.3-7.3c-1.2-9.6,0.3-17,3.7-19c0.8-0.5,1.7-0.7,2.9-0.7V5.6
	c-2.1,0-4,0.5-5.7,1.4c-7.1,4.1-8.6,16.7-5,32.6c-15.6,4.8-25.8,12.5-25.8,20.7S33.9,76.2,49.6,81c-3.6,16-2,28.7,5.1,32.7
	c1.6,1,3.5,1.4,5.6,1.4c6.9,0,15.9-4.9,25.1-13.5c9.1,8.5,18.2,13.4,25.1,13.4c2.1,0,4-0.5,5.7-1.4c7.1-4.1,8.6-16.7,5-32.6
	C136.7,76.2,146.9,68.5,146.9,60.4L146.9,60.4z M114.2,43.6c-0.9,3.2-2.1,6.6-3.4,9.9c-1-2-2.1-4-3.3-6c-1.2-2-2.4-4-3.6-5.9
	C107.5,42.2,110.9,42.8,114.2,43.6L114.2,43.6z M102.7,70.3c-2,3.4-4,6.6-6,9.6c-3.7,0.3-7.5,0.5-11.3,0.5s-7.6-0.2-11.3-0.5
	c-2.1-3-4.1-6.2-6.1-9.5c-1.9-3.3-3.6-6.6-5.2-10c1.6-3.4,3.3-6.7,5.2-10c2-3.4,4-6.6,6-9.6c3.7-0.3,7.5-0.5,11.3-0.5
	s7.6,0.2,11.3,0.5c2.1,3,4.1,6.2,6.1,9.5c1.9,3.3,3.6,6.6,5.2,10C106.3,63.7,104.6,67.1,102.7,70.3L102.7,70.3z M110.8,67.1
	c1.4,3.4,2.5,6.7,3.5,10c-3.3,0.8-6.8,1.5-10.3,2c1.2-1.9,2.5-3.9,3.6-5.9C108.7,71.1,109.8,69.1,110.8,67.1L110.8,67.1z M85.4,93.9
	c-2.3-2.4-4.7-5.1-7-8c2.3,0.1,4.6,0.2,6.9,0.2c2.4,0,4.7-0.1,7-0.2C90,88.8,87.7,91.4,85.4,93.9z M66.7,79.1c-3.6-0.5-7-1.2-10.3-2
	c0.9-3.2,2.1-6.6,3.4-9.9c1,2,2.1,4,3.3,6C64.3,75.2,65.5,77.2,66.7,79.1z M85.2,26.9c2.3,2.4,4.7,5.1,7,8c-2.3-0.1-4.6-0.2-6.9-0.2
	c-2.4,0-4.7,0.1-7,0.2C80.6,31.9,82.9,29.3,85.2,26.9z M66.7,41.6c-1.2,1.9-2.5,3.9-3.6,5.9c-1.2,2-2.2,4-3.3,6
	c-1.4-3.4-2.5-6.7-3.5-10C59.6,42.8,63.1,42.2,66.7,41.6L66.7,41.6z M44,73c-8.9-3.8-14.6-8.8-14.6-12.7s5.7-8.9,14.6-12.7
	c2.2-0.9,4.5-1.8,7-2.5c1.4,4.9,3.3,10,5.6,15.3c-2.3,5.2-4.2,10.3-5.6,15.2C48.5,74.8,46.1,74,44,73L44,73z M57.5,108.9
	c-3.4-2-4.9-9.4-3.7-19c0.3-2.4,0.7-4.8,1.3-7.4c4.9,1.2,10.3,2.1,15.9,2.7c3.4,4.6,6.9,8.9,10.4,12.5c-8.2,7.6-15.9,11.8-21.1,11.8
	C59.2,109.6,58.2,109.3,57.5,108.9L57.5,108.9z M117,89.8c1.2,9.6-0.3,17-3.7,19c-0.8,0.5-1.7,0.7-2.9,0.7
	c-5.2,0-12.9-4.1-21.1-11.7c3.5-3.7,7-7.9,10.4-12.5c5.7-0.6,11-1.5,16-2.8C116.3,85,116.7,87.5,117,89.8z M126.7,73
	c-2.2,0.9-4.5,1.8-7,2.5c-1.4-4.9-3.3-10-5.6-15.3c2.3-5.2,4.2-10.3,5.6-15.2c2.5,0.8,4.8,1.6,7.1,2.6c8.9,3.8,14.6,8.8,14.6,12.7
	C141.3,64.3,135.5,69.3,126.7,73L126.7,73z"/>
<circle class="st0" cx="85.3" cy="60.4" r="11.5"/>
<rect x="103.4" y="57.8" class="st0" width="65.5" height="5"/>
<rect x="99.2" y="45" transform="matrix(0.9763 -0.2163 0.2163 0.9763 -7.2596 28.6578)" class="st0" width="56.2" height="5"/>
<rect x="125" y="45.3" transform="matrix(0.2163 -0.9763 0.9763 0.2163 28.4364 181.9111)" class="st0" width="5" height="55.9"/>
<rect x="1.8" y="57.8" class="st0" width="65.5" height="5"/>
<rect x="40.9" y="19.4" transform="matrix(0.2163 -0.9763 0.9763 0.2163 -12.3724 79.6022)" class="st0" width="5" height="56.2"/>
<rect x="15.2" y="70.7" transform="matrix(0.9763 -0.2163 0.2163 0.9763 -14.8116 11.067)" class="st0" width="55.9" height="5"/>
</svg>
